<svg xmlns="http://www.w3.org/2000/svg" xmlns:xlink="http://www.w3.org/1999/xlink" version="1.1" width="256" height="256" viewBox="0 0 256 256" xml:space="preserve">
<desc>Created with Fabric.js 1.7.22</desc>
<defs>
</defs>
<g transform="translate(128 128) scale(0.72 0.72)" style="">
	<g style="stroke: none; stroke-width: 0; stroke-dasharray: none; stroke-linecap: butt; stroke-linejoin: miter; stroke-miterlimit: 10; fill: none; fill-rule: nonzero; opacity: 1;" transform="translate(-175.05 -175.05000000000004) scale(3.89 3.89)" >
	<path d="M 46.645 90 c -11.95 0 -23.9 -4.549 -32.998 -13.646 c -18.195 -18.196 -18.195 -47.802 0 -65.997 c 4.475 -4.475 9.698 -7.935 15.523 -10.283 c 0.407 -0.166 0.871 -0.045 1.148 0.294 c 0.277 0.338 0.302 0.818 0.062 1.183 c -10.865 16.514 -8.59 38.661 5.41 52.66 l 0 0 c 14 13.999 36.147 16.274 52.661 5.41 c 0.368 -0.24 0.846 -0.215 1.184 0.062 s 0.457 0.742 0.294 1.148 c -2.349 5.825 -5.809 11.048 -10.284 15.523 C 70.546 85.451 58.596 90 46.645 90 z M 27.036 3.21 c -4.426 2.159 -8.443 5.03 -11.975 8.561 c -17.415 17.415 -17.415 45.752 0 63.169 c 17.416 17.415 45.752 17.413 63.169 0 c 3.531 -3.532 6.402 -7.55 8.561 -11.976 c -16.945 9.429 -38.514 6.563 -52.416 -7.339 l 0 0 l 0 0 C 20.474 41.725 17.606 20.156 27.036 3.21 z" style="stroke: none; stroke-width: 1; stroke-dasharray: none; stroke-linecap: butt; stroke-linejoin: miter; stroke-miterlimit: 10; fill: rgb(255,255,255); fill-rule: nonzero; opacity: 1;" transform=" matrix(1 0 0 1 0 0) " stroke-linecap="round" />
</g>
</g>
</svg>